<?xml version="1.0" encoding="iso-8859-1"?>
<!-- Generator: Adobe Illustrator 19.0.0, SVG Export Plug-In . SVG Version: 6.00 Build 0)  -->
<svg xmlns="http://www.w3.org/2000/svg" xmlns:xlink="http://www.w3.org/1999/xlink" version="1.1" id="Layer_1" x="0px" y="0px" viewBox="0 0 512 512" style="enable-background:new 0 0 512 512;" xml:space="preserve">
<path style="fill:#D5DCED;" d="M256,502.181c59.733-17.693,137.663-69.923,162.13-106.16  c52.922-78.379,65.653-260.923,67.869-301.531c0.251-4.605-2.997-8.534-7.404-9.166C370.812,69.861,290.901,27.45,264.991,12.266  c-5.568-3.263-12.413-3.263-17.982,0C221.1,27.45,141.189,69.861,33.405,85.323c-4.407,0.633-7.655,4.562-7.404,9.166  c2.215,40.608,14.948,223.152,67.869,301.531C118.337,432.258,196.267,484.488,256,502.181z"/>
<path style="fill:#C7CFE2;" d="M247.009,12.266C221.1,27.449,141.189,69.861,33.405,85.323c-4.407,0.631-7.656,4.562-7.404,9.166  c2.215,40.608,14.948,223.152,67.869,301.532c24.467,36.237,102.398,88.467,162.13,106.16V9.818  C252.897,9.818,249.793,10.635,247.009,12.266z"/>
<path style="fill:#00C3FF;" d="M256,37.748c-29.985,17.117-103.702,54.39-202.516,71.283  c6.514,95.664,26.176,218.517,62.382,272.138c18.815,27.866,85.412,74.604,140.134,93.166c54.722-18.563,121.32-65.3,140.134-93.166  c36.206-53.623,55.869-176.476,62.383-272.138C359.701,92.139,285.984,54.864,256,37.748z"/>
<path style="fill:#00AAF0;" d="M53.483,109.031c6.514,95.664,26.176,218.517,62.382,272.138  c18.815,27.866,85.412,74.604,140.134,93.166V37.748C226.015,54.864,152.298,92.139,53.483,109.031z"/>
<path style="fill:#78D7FF;" d="M397.555,292.41c-0.899,0-1.806-0.104-2.713-0.337c-5.926-1.495-9.512-7.508-8.017-13.426  c6.246-24.743,11.646-52.89,16.06-83.663c0.872-6.048,6.471-10.254,12.518-9.374c6.048,0.864,10.238,6.471,9.374,12.518  c-4.527,31.534-10.073,60.44-16.51,85.926C407.007,289.066,402.497,292.41,397.555,292.41z M419.23,164.116  c-0.389,0-0.769-0.025-1.158-0.061c-6.073-0.63-10.488-6.064-9.857-12.142c0.519-5.037,1.028-10.125,1.495-15.248  c0.562-6.082,5.901-10.6,12.026-10c6.082,0.557,10.557,5.944,10.004,12.021c-0.484,5.21-0.993,10.385-1.529,15.507  C429.624,159.883,424.82,164.116,419.23,164.116z"/>
<path d="M256,512c-0.793,0-1.587-0.114-2.355-0.342c-59.583-17.649-140.572-70.85-166.649-109.471  c-23.119-34.24-41.374-90.834-54.257-168.209C22.647,173.368,18.873,117.62,17.719,96.467c-0.485-8.907,5.751-16.571,14.507-17.828  C161.188,60.139,250.546,1.956,251.433,1.371c2.771-1.828,6.364-1.828,9.135,0c0.887,0.584,90.463,58.799,219.206,77.269  c8.756,1.256,14.994,8.921,14.507,17.827c-1.153,21.155-4.928,76.902-15.021,137.512c-12.883,77.375-31.138,133.968-54.257,168.209  C398.927,440.81,317.94,494.01,258.355,511.659C257.587,511.886,256.793,512,256,512z M256,18.1  C235.822,30.483,152.07,78.204,34.582,95.058c-0.13,0.019-0.318,0.169-0.3,0.505c1.972,36.135,14.441,220.296,66.462,297.342  c23.586,34.932,99.81,84.946,155.257,102.135c55.446-17.188,131.67-67.202,155.257-102.135  c52.021-77.046,64.49-261.206,66.462-297.343c0.019-0.336-0.169-0.485-0.301-0.505C359.93,78.204,276.179,30.483,256,18.1z"/>
<path d="M256,467.766c-4.58,0-8.294-3.713-8.294-8.294V105.607c0-4.58,3.713-8.294,8.294-8.294c4.58,0,8.294,3.713,8.294,8.294  v353.866C264.294,464.053,260.58,467.766,256,467.766z"/>
<path d="M256,78.514c-4.58,0-8.294-3.713-8.294-8.294V52.527c0-4.58,3.713-8.294,8.294-8.294c4.58,0,8.294,3.713,8.294,8.294V70.22  C264.294,74.8,260.58,78.514,256,78.514z"/>
<g>
</g>
<g>
</g>
<g>
</g>
<g>
</g>
<g>
</g>
<g>
</g>
<g>
</g>
<g>
</g>
<g>
</g>
<g>
</g>
<g>
</g>
<g>
</g>
<g>
</g>
<g>
</g>
<g>
</g>
</svg>
