<?xml version="1.0" encoding="UTF-8"?>
<!DOCTYPE svg PUBLIC "-//W3C//DTD SVG 1.1//EN" "http://www.w3.org/Graphics/SVG/1.1/DTD/svg11.dtd">
<!-- Creator: CorelDRAW -->
<svg xmlns="http://www.w3.org/2000/svg" xml:space="preserve" width="2048px" height="2048px" style="shape-rendering:geometricPrecision; text-rendering:geometricPrecision; image-rendering:optimizeQuality; fill-rule:evenodd; clip-rule:evenodd"
viewBox="0 0 2048 2048"
 xmlns:xlink="http://www.w3.org/1999/xlink">
 <defs>
  <style type="text/css">
   <![CDATA[
    .fil1 {fill:none}
    .fil0 {fill:#424242;fill-rule:nonzero}
   ]]>
  </style>
 </defs>
 <g id="Layer_x0020_1">
  <metadata id="CorelCorpID_0Corel-Layer"/>
  <path class="fil0" d="M844.185 1349.07c-11.1461,-15.4677 -26.0705,-36.2008 -0.0389764,0.0283465l0.0389764 -0.0283465z"/>
  <path class="fil0" d="M657.642 924.35l-36.75 -23.9173 11.5536 174.269c49.8933,48.5693 161.211,203.793 211.793,274.331 14.511,20.2323 8.27363,11.5913 -0.0531496,0.0377953l-0.0389764 0.0283465 9.46772 13.174 0.283465 0.333071 -0.0283465 0.0236221 0.918898 1.27677c10.7976,13.4551 16.6465,29.2937 17.7449,45.2823 1.0252,14.9669 -2.10591,30.1099 -9.22796,43.5839l-49.043 214.792c-0.478347,3.29882 -1.48347,6.57993 -3.05551,9.7252l-0.121654 -0.0614174c-10.0134,20.0268 -27.2303,34.1114 -46.9689,40.6902 -19.6453,6.54686 -41.8122,5.59134 -61.8378,-4.42205 -20.0268,-10.0134 -34.1114,-27.2303 -40.6902,-46.9689 -6.03071,-18.0969 -5.6941,-38.3362 2.22402,-57.0674l34.552 -177.721 -154.896 -160.051 -0.193701 0.0507874 -0.732284 0.186614 -124.058 429.86c-0.15,0.805512 -0.333071,1.61221 -0.548032,2.41772l-0.138189 -0.0366142 0.0980316 0.0259843c-5.78859,21.6662 -19.8343,38.9504 -37.8614,49.3737 -17.491,10.1126 -38.6906,13.7705 -59.7012,8.72127 -0.676772,-0.134646 -1.35354,-0.290551 -2.03032,-0.47126l0.0106299 -0.0401575c-21.6685,-5.79095 -38.9481,-19.8354 -49.3713,-37.8626 -10.1126,-17.4874 -13.7693,-38.6859 -8.72127,-59.6977 0.0602363,-0.301181 0.122835,-0.602363 0.191339,-0.903544l0.0295276 0.00708662 0.290551 -1.12323 0.00590552 0.0011811 125.022 -546.776c0.172441,-1.07717 0.400394,-2.15433 0.688583,-3.23032l0.0401575 0.0106299c0.307087,-1.14803 0.308268,-0.920079 0.753544,-2.33268l3.98622 -416.348c-0.0649607,-0.832678 -0.0992127,-1.67362 -0.0992127,-2.52284 0,-26.3421 8.70001,-49.0394 22.7256,-66.9449 13.3264,-17.0114 31.3382,-29.361 51.1311,-36.124 19.689,-6.72875 41.3764,-7.99371 62.1733,-2.87953 21.1866,5.21103 41.2701,16.9725 57.1997,36.2268l154.461 154.46 130.884 -22.6394c0.288189,-0.0649607 0.577559,-0.12874 0.869292,-0.186614l0.00236221 0.00944883c37.8331,-7.53544 66.4961,8.84292 82.7823,33.8693 6.05906,9.31536 10.2236,19.6606 12.3248,30.2079 2.10118,10.5461 2.22402,21.6827 0.200788,32.576 -5.40237,29.1047 -25.2768,55.017 -62.4189,62.8312 -0.578741,0.135827 -1.16221,0.256299 -1.75394,0.361418l-5.57126 -31.5118 5.5004 31.5 -172.219 30.4488c-1.25315,0.270473 -2.53347,0.472441 -3.84213,0.594095l-2.96693 -31.8626 2.87481 31.7504c-9.09686,0.846851 -19.8803,0.961418 -31.7114,-1.66181 -11.9539,-2.65158 -24.3461,-7.93583 -36.1335,-17.6728z"/>
  <path class="fil0" d="M500.389 288.963c37.0311,0 70.5638,15.0142 94.8379,39.287 24.2729,24.2729 39.287,57.8067 39.287,94.8379 0,37.0311 -15.0142,70.565 -39.287,94.8379 -24.274,24.2729 -57.8067,39.287 -94.8379,39.287 -37.0335,0 -70.565,-15.0142 -94.8379,-39.287 -24.2729,-24.2729 -39.287,-57.8067 -39.287,-94.8379 0,-37.0335 15.0142,-70.565 39.287,-94.8379 24.2729,-24.2729 57.8044,-39.287 94.8379,-39.287z"/>
  <path class="fil0" d="M1346.03 387.854l0.0011811 0c122.145,0 233.165,49.9465 313.633,130.414 80.4674,80.4662 130.414,191.486 130.414,313.631l0 684.611c0,17.6728 -14.328,32.0008 -32.0008,32.0008l-824.092 0c-17.6728,0 -32.0008,-14.328 -32.0008,-32.0008l0 -684.611c0,-122.145 49.9465,-233.165 130.414,-313.631 80.4674,-80.4674 191.488,-130.414 313.633,-130.414zm0.0011811 64.0016l-0.0011811 0c-104.479,0 -199.485,42.7654 -268.382,111.663 -68.8973,68.8973 -111.663,163.902 -111.663,268.381l0 652.61 760.091 0 0 -652.61c0,-104.479 -42.7654,-199.484 -111.663,-268.381 -68.8973,-68.8973 -163.903,-111.663 -268.382,-111.663z"/>
  <path class="fil0" d="M1215.14 406.2c0,15.965 14.328,28.9087 32.0008,28.9087 35.6138,0 162.169,0 197.783,0 17.6728,0 32.0008,-12.9437 32.0008,-28.9087l0 -72.2528c0,-15.965 -14.328,-28.9087 -32.0008,-28.9087l-197.783 0c-17.6728,0 -32.0008,12.9437 -32.0008,28.9087l0 72.2528z"/>
  <path class="fil0" d="M1049.36 1596.15c27.0378,0 51.5209,10.9642 69.2422,28.6855 17.7213,17.7213 28.6855,42.2055 28.6855,69.2422 0,27.0378 -10.9642,51.5209 -28.6855,69.2422 -17.7213,17.7213 -42.2044,28.6855 -69.2422,28.6855 -27.0378,0 -51.5209,-10.9642 -69.2422,-28.6855 -17.7213,-17.7213 -28.6855,-42.2044 -28.6855,-69.2422 0,-27.0378 10.9642,-51.5209 28.6855,-69.2422 17.7213,-17.7213 42.2044,-28.6855 69.2422,-28.6855z"/>
  <path class="fil0" d="M1642.71 1596.15c27.0378,0 51.5209,10.9642 69.2422,28.6855 17.7213,17.7213 28.6855,42.2044 28.6855,69.2422 0,27.0378 -10.9642,51.5209 -28.6855,69.2422 -17.7213,17.7213 -42.2044,28.6855 -69.2422,28.6855 -27.0366,0 -51.5209,-10.9642 -69.2422,-28.6855 -17.7213,-17.7213 -28.6855,-42.2044 -28.6855,-69.2422 0,-27.0366 10.9642,-51.5209 28.6855,-69.2422 17.7213,-17.7213 42.2055,-28.6855 69.2422,-28.6855z"/>
  <path class="fil0" d="M1378.03 288c0,-17.6728 -14.328,-32.0008 -32.0008,-32.0008 -17.6728,0 -32.0008,14.328 -32.0008,32.0008l0 32.9634c0,17.6728 14.328,32.0008 32.0008,32.0008 17.6728,0 32.0008,-14.328 32.0008,-32.0008l0 -32.9634z"/>
  <path class="fil0" d="M1026.38 1214.15l394.439 0c17.6728,0 32.0008,14.328 32.0008,32.0008l0 175.09c0,17.6728 -14.328,32.0008 -32.0008,32.0008l-394.439 0c-17.6728,0 -32.0008,-14.328 -32.0008,-32.0008l0 -175.09c0,-17.6728 14.328,-32.0008 32.0008,-32.0008z"/>
  <path class="fil0" d="M1517.21 993.473l146.786 0c17.6728,0 32.0008,14.328 32.0008,32.0008l0 395.769c0,17.6728 -14.328,32.0008 -32.0008,32.0008l-146.786 0c-17.6728,0 -32.0008,-14.328 -32.0008,-32.0008l0 -395.769c0,-17.6728 14.328,-32.0008 32.0008,-32.0008z"/>
  <path class="fil0" d="M1026.38 832l394.439 0c17.6728,0 32.0008,14.328 32.0008,32.0008l0 286.816c0,17.6728 -14.328,32.0008 -32.0008,32.0008l-394.439 0c-17.6728,0 -32.0008,-14.328 -32.0008,-32.0008l0 -286.816c0,-17.6728 14.328,-32.0008 32.0008,-32.0008z"/>
  <path class="fil0" d="M1152.49 848l142.218 0 0 -33.0319c0,-4.65827 -1.91811,-8.90552 -5.00552,-11.9929 -3.0874,-3.0874 -7.33465,-5.00552 -11.9929,-5.00552l-108.221 0c-4.65709,0 -8.90552,1.91811 -11.9929,5.00552 -3.0874,3.0874 -5.00552,7.33465 -5.00552,11.9929l0 33.0319zm158.218 32.0008l-174.219 0c-8.83583,0 -16.0004,-7.16457 -16.0004,-16.0004l0 -49.0323c0,-13.4917 5.50867,-25.7457 14.3811,-34.6181 8.87245,-8.87245 21.1276,-14.3811 34.6181,-14.3811l108.221 0c13.4917,0 25.7457,5.50867 34.6181,14.3811 8.87245,8.87245 14.3811,21.1264 14.3811,34.6181l0 49.0323c0,8.83583 -7.16457,16.0004 -16.0004,16.0004z"/>
 </g>
 <rect class="fil1" width="2048" height="2048"/>
</svg>
