<?xml version="1.0" encoding="utf-8"?>
<!-- Generator: Adobe Illustrator 24.0.0, SVG Export Plug-In . SVG Version: 6.00 Build 0)  -->
<svg version="1.1" id="Layer_1" xmlns="http://www.w3.org/2000/svg" xmlns:xlink="http://www.w3.org/1999/xlink" x="0px" y="0px"
	 viewBox="0 0 256 256" enable-background="new 0 0 256 256" xml:space="preserve">
<g>
</g>
<g>
	<path fill="#AEAEAE" d="M249.55,133.09c0,22.43-18.18,40.61-40.61,40.61h-21.21c-2.25-31.03-28.14-55.5-59.73-55.5
		s-57.48,24.47-59.73,55.5H58.03c-28.49,0-51.58-23.09-51.58-51.58c0-28.49,23.09-51.59,51.58-51.59c0.5,0,0.99,0.03,1.49,0.04
		c10.5-30.56,39.47-52.54,73.6-52.54c41.87,0,76,33.06,77.75,74.5C232.4,93.54,249.55,111.31,249.55,133.09z"/>
	<path fill="#868686" d="M194.74,173.7h-7.01c-2.25-31.03-28.14-55.5-59.73-55.5s-57.48,24.47-59.73,55.5h-7.01
		c0-28.577,27.428-62.5,66.74-62.5C167.137,111.2,194.74,145.006,194.74,173.7z"/>
	<path fill="#EFBF27" d="M128,237.97c-34.83,0-62.356-29.685-59.73-64.27c2.25-31.03,28.14-55.5,59.73-55.5s57.48,24.47,59.73,55.5
		C190.354,208.254,162.86,237.97,128,237.97z"/>
	<path fill="#E7A523" d="M128,226.303c-6.9,0-12.562-5.403-12.976-12.201c-6.187-1.305-11.372-4.438-15.473-9.36
		c-5.546-6.658-3.167-16.89,4.947-20.301c-14.512-13.475-8.07-37.327,10.516-42.195c0.325-6.881,6.025-12.379,12.985-12.379
		c6.966,0,12.67,5.508,12.986,12.397c6.664,1.738,12.512,5.939,16.357,11.951c4.072,6.369,1.863,14.917-4.852,18.486
		c13.293,13.787,6.508,36.504-11.507,41.223C140.66,220.805,134.96,226.303,128,226.303z"/>
	<path fill="#EEEEEE" d="M134.602,172.085h-13.203c-3.229,0-5.857-2.628-5.857-5.857c0-3.098,2.457-5.869,5.944-5.856h12.626
		c2.859,0.021,5.629,1.586,7.227,4.084c1.786,2.79,5.494,3.606,8.288,1.821c2.791-1.786,3.606-5.496,1.821-8.288
		c-3.832-5.99-10.33-9.617-17.447-9.617v-5.504c0-3.313-2.687-6-6-6s-6,2.687-6,6v5.504c-11.319,0-18.459,8.623-18.459,17.856
		c0,9.847,8.011,17.857,17.857,17.857h13.203c3.229,0,5.857,2.628,5.857,5.857c0,3.188-2.554,5.857-5.897,5.857
		c-0.016,0-0.031,0-0.047,0h-13.777c-2.462-0.019-4.924-1.221-6.586-3.217c-2.12-2.547-5.905-2.892-8.45-0.771
		c-2.546,2.121-2.892,5.904-0.771,8.45c4.118,4.944,9.596,7.537,17.069,7.537v5.504c0,3.313,2.687,6,6,6s6-2.687,6-6V207.8
		c11.318,0,18.459-8.622,18.459-17.857C152.459,180.095,144.448,172.085,134.602,172.085z"/>
	<path fill="#EEEEEE" d="M55.672,166.134c-0.047,0-0.095-0.001-0.143-0.004c-18.023-1.014-33.876-13.252-39.446-30.454
		c-0.426-1.313,0.294-2.724,1.607-3.148c1.312-0.425,2.724,0.293,3.148,1.607c4.94,15.253,18.994,26.104,34.972,27.003
		c1.378,0.077,2.433,1.258,2.355,2.637C58.091,165.104,56.988,166.134,55.672,166.134z M14.064,125.297
		c-0.076-1.05-0.114-2.118-0.114-3.177c0-1.381,1.119-2.5,2.5-2.5s2.5,1.119,2.5,2.5c0,0.939,0.034,1.887,0.101,2.817
		c0.1,1.377-0.937,2.574-2.313,2.673C15.398,127.717,14.166,126.702,14.064,125.297z"/>
	<path fill="#EEEEEE" d="M204.167,166.2h-3c-1.381,0-2.5-1.119-2.5-2.5s1.119-2.5,2.5-2.5h3c1.381,0,2.5,1.119,2.5,2.5
		S205.548,166.2,204.167,166.2z M211.676,163.682c-0.233-1.36,0.68-2.653,2.041-2.887c13.521-2.322,23.334-13.974,23.334-27.704
		c0-15.04-11.756-27.371-26.765-28.073c-6.512-0.305-11.63-5.446-11.905-11.959c-1.479-35.061-30.145-62.525-65.26-62.525
		c-1.381,0-2.5-1.119-2.5-2.5s1.119-2.5,2.5-2.5c37.803,0,68.663,29.568,70.256,67.314c0.165,3.908,3.236,6.993,7.144,7.176
		c17.681,0.827,31.53,15.352,31.53,33.067c0,16.172-11.561,29.896-27.488,32.632C213.204,165.955,211.91,165.045,211.676,163.682z"
		/>
	<path fill="#F7E4B0" d="M128.022,230.494c-9.248-0.001-18.337-2.442-26.286-7.061c-1.194-0.694-1.6-2.225-0.906-3.418
		c0.695-1.194,2.225-1.6,3.418-0.906c7.188,4.176,15.408,6.384,23.774,6.385c26.206,0,47.31-21.231,47.31-47.359
		c0-12.723-4.91-24.64-13.826-33.556c-0.977-0.977-0.977-2.559,0-3.535s2.559-0.977,3.535,0c9.86,9.86,15.291,23.033,15.291,37.091
		C180.332,206.989,157.027,230.494,128.022,230.494z M93.246,217.285c-0.781-0.694-1.551-1.421-2.288-2.158
		c-0.977-0.977-0.977-2.559,0-3.535s2.559-0.977,3.535,0c0.669,0.669,1.367,1.327,2.075,1.957c1.032,0.918,1.124,2.498,0.207,3.529
		C95.854,218.114,94.272,218.199,93.246,217.285z"/>
	<path d="M11.53,144.609c-1.214,0.658-1.659,2.196-1,3.391c0.675,1.244,2.223,1.636,3.399,1c1.2-0.66,1.65-2.181,0.99-3.391
		C14.279,144.431,12.801,143.924,11.53,144.609z"/>
	<path d="M252.05,133.09c0-22.332-17.009-40.727-38.81-42.89c-2.925-41.996-37.912-74.67-80.12-74.67
		c-34.463,0-63.99,21.743-75.351,52.5c-36.253,0.146-62.292,35.512-51.33,70.34c0.418,1.371,1.883,2.047,3.13,1.63
		c1.311-0.41,2.051-1.82,1.631-3.13C1.26,105.114,24.988,73.03,58.03,73.03c1.194,0,3.139,0.401,3.85-1.65
		c10.46-30.42,39.09-50.85,71.24-50.85c40.489,0,73.55,31.67,75.25,72.1c0.06,1.31,1.08,2.34,2.38,2.4
		c20.359,0.949,36.3,17.67,36.3,38.06c0,21.058-17.043,38.11-38.11,38.11h-18.93c-3.445-31.423-30.127-55.5-62.01-55.5
		c-32.022,0-58.604,24.283-62.01,55.5h-7.96c-14.641,0-28.41-6.471-37.771-17.74c-0.85-1.021-2.5-1.17-3.52-0.32
		c-1.017,0.836-1.244,2.409-0.33,3.521C26.729,169.08,41.89,176.2,58.02,176.2h7.619c-1.149,34.981,27.05,64.27,62.371,64.27h0.01
		c12.82,0,25.15-3.87,35.63-11.189c1.131-0.79,1.41-2.351,0.62-3.48c-0.76-1.09-2.39-1.38-3.479-0.62
		c-9.65,6.73-20.98,10.29-32.79,10.29c-33.376,0-59.78-28.424-57.24-61.58c2.16-29.833,27.303-53.189,57.23-53.189h0.02
		c31.143,0,57.39,25.348,57.39,57.56c0,12.12-3.8,23.73-10.979,33.57c-0.811,1.12-0.57,2.68,0.55,3.5
		c1.07,0.779,2.71,0.52,3.49-0.55c8.128-11.139,12.36-24.601,11.9-38.58h18.579C232.796,176.2,252.05,156.881,252.05,133.09z"/>
	<path d="M171.649,222.649c0.99-0.97,1.011-2.55,0.04-3.54c-0.93-0.96-2.58-0.97-3.529-0.04c-0.99,0.971-1.011,2.551-0.04,3.54
		C169.072,223.583,170.656,223.622,171.649,222.649z"/>
	<path d="M107.24,160.26c0.529-1.27-0.07-2.74-1.341-3.27c-1.25-0.53-2.75,0.1-3.27,1.34c-0.53,1.27,0.07,2.739,1.34,3.27
		C105.209,162.118,106.697,161.554,107.24,160.26z"/>
	<path d="M128,221.8c4.689,0,8.5-3.81,8.5-8.5v-3.13c10.969-1.153,18.46-10.016,18.46-20.23c-0.01-11.22-9.141-20.35-20.36-20.35
		h-13.2c-1.85-0.01-3.359-1.521-3.359-3.36c0.029-1.66,1.22-3.35,3.45-3.359h12.619c1.98,0,3.99,1.149,5.12,2.93
		c2.53,3.964,7.763,5.098,11.74,2.59c4.072-2.615,5.046-7.91,2.58-11.75c-3.83-6-10.05-9.88-17.05-10.64v-3.13
		c0-4.69-3.811-8.5-8.5-8.5c-4.69,0-8.5,3.81-8.5,8.5V146c-3.59,0.38-6.98,1.609-9.79,3.569c-1.141,0.78-1.42,2.341-0.63,3.48
		c0.76,1.09,2.38,1.39,3.479,0.63c2.69-1.86,5.87-2.81,9.44-2.81c1.353,0,2.5-1.084,2.5-2.5v-5.5c0-1.931,1.569-3.5,3.5-3.5
		c1.93,0,3.5,1.569,3.5,3.5v5.5c0,1.396,1.122,2.5,2.5,2.5c6.21,0.01,11.95,3.17,15.34,8.46c1.072,1.726,0.501,3.842-1.06,4.84
		c-1.72,1.068-3.82,0.51-4.841-1.061c-2.08-3.239-5.56-5.199-9.31-5.239h-12.67c-4.651,0-8.42,3.692-8.42,8.359
		c0.01,4.601,3.75,8.351,8.359,8.351h13.2c8.45,0.02,15.34,6.91,15.36,15.359c-0.061,7.61-5.561,15.33-15.96,15.36
		c-1.341,0-2.5,1.081-2.5,2.5v5.5c0,1.93-1.57,3.5-3.5,3.5c-1.931,0-3.5-1.57-3.5-3.5v-5.5c0-1.387-1.114-2.5-2.5-2.5
		c-6.63-0.05-11.3-2.09-15.15-6.64c-1.262-1.524-1.005-3.711,0.45-4.931c1.517-1.255,3.721-1.01,4.93,0.45
		c2.16,2.59,5.261,4.09,8.49,4.12h13.84c4.62-0.01,8.391-3.76,8.4-8.36c-0.01-4.6-3.76-8.35-8.36-8.35h-13.22
		c-7.44,0-13.95-5.55-15.14-12.9c-0.221-1.35-1.521-2.29-2.87-2.06c-1.369,0.207-2.297,1.516-2.07,2.87
		c1.593,9.752,10.064,17.08,20.1,17.08h13.2c1.851,0.01,3.351,1.51,3.36,3.359c-0.021,1.88-1.51,3.351-3.4,3.36H120.74
		c-1.681,0-3.511-0.91-4.671-2.32c-3.045-3.647-8.445-4.066-11.97-1.08c-3.625,3.012-4.08,8.381-1.09,11.96
		c4.13,5.021,9.68,7.83,16.49,8.351v3.09C119.5,217.99,123.31,221.8,128,221.8z"/>
</g>
</svg>
