<?xml version="1.0" encoding="utf-8"?>
<!-- Generator: Adobe Illustrator 24.3.0, SVG Export Plug-In . SVG Version: 6.00 Build 0)  -->
<svg version="1.1" id="Layer_1" xmlns="http://www.w3.org/2000/svg" xmlns:xlink="http://www.w3.org/1999/xlink" x="0px" y="0px"
	 viewBox="0 0 400 400" enable-background="new 0 0 400 400" xml:space="preserve">
<g>
	<g>
		<g>
			<path fill="#8EC0D6" d="M134.598,93.83c0,8.624-6.991,15.614-15.615,15.614h-2.309c-8.624,0-15.615-6.99-15.615-15.614v-9.02
				c0-8.624,6.991-15.614,15.615-15.614h2.309c8.624,0,15.615,6.99,15.615,15.614V93.83z"/>
		</g>
		<g>
			<path fill="#8EC0D6" d="M245.278,280.495h-43.197c0-16.77-3.216-23.782-7.116-35.237l-36.613-97.711
				c-10.933-27.33-29.781-26.735-35.528-25.356c-11.742,2.817-18.976,14.472-16.16,26.211l49.919,155.128
				c0.616,2.561,1.726,8.233,3.103,10.309c3.232,9.816,12.366,20.32,23.261,20.32h112.639c0,0,0-17.829,0-31.417
				c0-13.583-6.13-22.246-19.717-22.246h-10.468"/>
		</g>
		<g>
			<path fill="#A9D2E0" d="M169.749,313.837c-1.377-2.077-2.488-7.748-3.103-10.309L116.726,148.4
				c-2.807-11.703,4.376-23.317,16.054-26.179c-4.317-0.871-7.946-0.514-9.955-0.031c-11.742,2.817-18.976,14.472-16.16,26.211
				l49.919,155.128c0.616,2.561,1.726,8.233,3.103,10.309c3.232,9.816,12.366,20.32,23.261,20.32h10.062
				C182.115,334.158,172.982,323.654,169.749,313.837z"/>
		</g>
		<g>
			<path fill="#E3E3E3" d="M122.825,122.694c0.624-0.149,1.426-0.285,2.331-0.385v-13.828c0-0.244-0.038-0.478-0.072-0.714
				c-1.412,0.419-2.876,0.714-4.424,0.714h-2.309c-1.105,0-2.181-0.121-3.223-0.341c-0.008,0.115-0.034,0.224-0.034,0.341v15.08
				c0,0.835,0.223,1.61,0.581,2.302C117.796,124.43,120.188,123.326,122.825,122.694z"/>
		</g>
		<g>
			<path fill="#A9D2E0" d="M111.121,93.83v-9.02c0-7.278,5.001-13.339,11.739-15.07c-1.246-0.321-2.53-0.544-3.877-0.544h-2.309
				c-8.624,0-15.615,6.99-15.615,15.614v9.02c0,8.624,6.991,15.614,15.615,15.614h2.309c1.346,0,2.63-0.223,3.877-0.544
				C116.122,107.169,111.121,101.108,111.121,93.83z"/>
		</g>
	</g>
	<g>
		<g>
			<path fill="#161616" d="M120.66,112.798h-2.309c-11.385,0-20.646-9.261-20.646-20.644v-9.02c0-11.383,9.261-20.644,20.646-20.644
				h2.309c11.385,0,20.646,9.261,20.646,20.644v9.02C141.306,103.537,132.045,112.798,120.66,112.798z M118.351,72.55
				c-5.837,0-10.584,4.748-10.584,10.583v9.02c0,5.835,4.748,10.583,10.584,10.583h2.309c5.837,0,10.584-4.748,10.584-10.583v-9.02
				c0-5.835-4.748-10.583-10.584-10.583H118.351z"/>
		</g>
		<g>
			<path fill="#161616" d="M297.264,337.512H182.949c-13.221,0-23.921-11.174-27.847-22.398c-1.433-2.506-2.383-6.167-3.303-10.018
				l-0.062-0.26l-49.86-154.998c-0.039-0.121-0.074-0.244-0.103-0.368c-3.454-14.397,5.465-28.923,19.878-32.38
				c2.81-0.676,27.855-5.616,41.372,28.17l36.651,97.389c0.616,1.801,1.164,3.342,1.69,4.82c2.835,7.97,5.144,14.464,5.647,26.32
				h38.267c2.779,0,5.031,2.252,5.031,5.031c0,2.779-2.252,5.031-5.031,5.031h-43.197c-2.779,0-5.031-2.252-5.031-5.031
				c0-13.452-2.167-19.545-5.167-27.979c-0.54-1.52-1.102-3.102-1.68-4.798l-36.559-97.141
				c-10.339-25.839-27.701-22.493-29.645-22.027c-8.963,2.15-14.529,11.131-12.484,20.076l49.857,154.987
				c0.039,0.121,0.074,0.242,0.103,0.365l0.108,0.454c0.368,1.539,1.489,6.22,2.296,7.438c0.249,0.375,0.445,0.781,0.586,1.207
				c2.563,7.78,9.911,16.051,18.483,16.051h109.285v-24.709c0-9.133-4.299-18.892-16.363-18.892h-10.468
				c-2.779,0-5.031-2.252-5.031-5.031c0-2.779,2.252-5.031,5.031-5.031h10.468c15.559,0,26.425,11.906,26.425,28.954v29.74
				C302.295,335.26,300.043,337.512,297.264,337.512z"/>
		</g>
		<g>
			<path fill="#161616" d="M122.825,121.98c0.624-0.149,1.426-0.285,2.331-0.385v-13.828c0-0.244-0.038-0.478-0.072-0.714
				c-1.412,0.419-2.876,0.714-4.424,0.714h-2.309c-1.105,0-2.181-0.121-3.223-0.341c-0.008,0.115-0.034,0.224-0.034,0.341v15.08
				c0,0.835,0.223,1.61,0.581,2.302C117.796,123.716,120.188,122.612,122.825,121.98z"/>
		</g>
	</g>
</g>
</svg>
