<?xml version="1.0" encoding="utf-8"?>
<!-- Generator: Adobe Illustrator 22.0.0, SVG Export Plug-In . SVG Version: 6.00 Build 0)  -->
<svg version="1.1" xmlns="http://www.w3.org/2000/svg" xmlns:xlink="http://www.w3.org/1999/xlink" x="0px" y="0px"
	 viewBox="0 0 256 256" style="enable-background:new 0 0 256 256;" xml:space="preserve">
<style type="text/css">
	.st0{display:none;}
	.st1{display:inline;}
	.st2{fill:none;stroke:#6B1D1D;stroke-width:0.5;stroke-miterlimit:10;}
	.st3{fill:#3A312A;}
	.st4{fill:#87796F;}
	.st5{fill:#D5DE58;}
	.st6{fill:#695B51;}
	.st7{fill:#FCE8CB;}
	.st8{fill:#F16C7A;}
	.st9{fill:#8AC6DD;}
	.st10{fill:#DECAAD;}
	.st11{fill:#D6DF58;}
	.st12{fill-rule:evenodd;clip-rule:evenodd;fill:#FCE8CB;}
	.st13{fill:#F5978A;}
	.st14{fill:#D7E057;}
	.st15{fill-rule:evenodd;clip-rule:evenodd;fill:#87796F;}
	.st16{fill:#6CA8BF;}
	.st17{fill:#B9C239;}
	.st18{fill:#D34E5C;}
	.st19{fill:#FAE6CA;}
	.st20{fill:#F8E4C8;}
	.st21{fill:#8AC5DC;}
	.st22{fill:#EF6D7A;}
	.st23{fill:#EB6E7A;}
	.st24{fill:#89C4DB;}
	.st25{fill-rule:evenodd;clip-rule:evenodd;fill:#F16C7A;}
	.st26{fill:#F7E3C7;}
	.st27{fill:#F6E2C6;}
	.st28{fill:#ED6E7A;}
	.st29{fill:#8AC3DA;}
	.st30{fill:#D5DC57;}
	.st31{fill-rule:evenodd;clip-rule:evenodd;fill:#D7E057;}
	.st32{fill-rule:evenodd;clip-rule:evenodd;fill:#F8E4C8;}
	.st33{fill:#D4DB56;}
	.st34{fill:#F59689;}
	.st35{fill:#DDC9AC;}
	.st36{fill:#D24E5C;}
	.st37{fill:#6A5C52;}
	.st38{fill:#6CA6BE;}
	.st39{fill:#B8C136;}
	.st40{fill-rule:evenodd;clip-rule:evenodd;fill:#FAE6CA;}
</style>
<g id="Layer_2" class="st0">
	<g class="st1">
		<g>
			<line class="st2" x1="0" y1="4.829" x2="256" y2="4.829"/>
			<line class="st2" x1="0" y1="16.56" x2="256" y2="16.56"/>
			<line class="st2" x1="0" y1="28.29" x2="256" y2="28.29"/>
			<line class="st2" x1="0" y1="40.021" x2="256" y2="40.021"/>
			<line class="st2" x1="0" y1="51.751" x2="256" y2="51.751"/>
			<line class="st2" x1="0" y1="63.482" x2="256" y2="63.482"/>
			<line class="st2" x1="0" y1="75.213" x2="256" y2="75.213"/>
			<line class="st2" x1="0" y1="86.943" x2="256" y2="86.943"/>
			<line class="st2" x1="0" y1="98.674" x2="256" y2="98.674"/>
			<line class="st2" x1="0" y1="110.404" x2="256" y2="110.404"/>
			<line class="st2" x1="0" y1="122.135" x2="256" y2="122.135"/>
			<line class="st2" x1="0" y1="133.865" x2="256" y2="133.865"/>
			<line class="st2" x1="0" y1="145.596" x2="256" y2="145.596"/>
			<line class="st2" x1="0" y1="157.326" x2="256" y2="157.326"/>
			<line class="st2" x1="0" y1="169.057" x2="256" y2="169.057"/>
			<line class="st2" x1="0" y1="180.788" x2="256" y2="180.788"/>
			<line class="st2" x1="0" y1="192.518" x2="256" y2="192.518"/>
			<line class="st2" x1="0" y1="204.249" x2="256" y2="204.249"/>
			<line class="st2" x1="0" y1="215.979" x2="256" y2="215.979"/>
			<line class="st2" x1="0" y1="227.71" x2="256" y2="227.71"/>
			<line class="st2" x1="0" y1="239.44" x2="256" y2="239.44"/>
			<line class="st2" x1="0" y1="251.171" x2="256" y2="251.171"/>
		</g>
		<g>
			<line class="st2" x1="251.171" y1="0" x2="251.171" y2="256"/>
			<line class="st2" x1="239.44" y1="0" x2="239.44" y2="256"/>
			<line class="st2" x1="227.71" y1="0" x2="227.71" y2="256"/>
			<line class="st2" x1="215.979" y1="0" x2="215.979" y2="256"/>
			<line class="st2" x1="204.249" y1="0" x2="204.249" y2="256"/>
			<line class="st2" x1="192.518" y1="0" x2="192.518" y2="256"/>
			<line class="st2" x1="180.788" y1="0" x2="180.788" y2="256"/>
			<line class="st2" x1="169.057" y1="0" x2="169.057" y2="256"/>
			<line class="st2" x1="157.326" y1="0" x2="157.326" y2="256"/>
			<line class="st2" x1="145.596" y1="0" x2="145.596" y2="256"/>
			<line class="st2" x1="133.865" y1="0" x2="133.865" y2="256"/>
			<line class="st2" x1="122.135" y1="0" x2="122.135" y2="256"/>
			<line class="st2" x1="110.404" y1="0" x2="110.404" y2="256"/>
			<line class="st2" x1="98.674" y1="0" x2="98.674" y2="256"/>
			<line class="st2" x1="86.943" y1="0" x2="86.943" y2="256"/>
			<line class="st2" x1="75.213" y1="0" x2="75.213" y2="256"/>
			<line class="st2" x1="63.482" y1="0" x2="63.482" y2="256"/>
			<line class="st2" x1="51.751" y1="0" x2="51.751" y2="256"/>
			<line class="st2" x1="40.021" y1="0" x2="40.021" y2="256"/>
			<line class="st2" x1="28.29" y1="0" x2="28.29" y2="256"/>
			<line class="st2" x1="16.56" y1="0" x2="16.56" y2="256"/>
			<line class="st2" x1="4.829" y1="0" x2="4.829" y2="256"/>
		</g>
	</g>
</g>
<g id="Layer_1">
	<g>
		<path class="st16" d="M234.645,234.38c-2.18,2.33-5.14,3.62-8.33,3.62h-15c3.19,0,6.15-1.29,8.33-3.62
			c2.18-2.33,3.26-5.37,3.04-8.56L211.555,63h15l11.13,162.82C237.905,229.01,236.825,232.05,234.645,234.38z"/>
		<path class="st14" d="M94.958,61.5H28.042v-5.497c0-5.801,4.702-10.503,10.503-10.503h45.91c5.801,0,10.503,4.702,10.503,10.503
			V61.5z"/>
		<path class="st3" d="M94.959,63H28.042c-0.829,0-1.5-0.672-1.5-1.5v-5.497C26.542,49.385,31.926,44,38.545,44h45.91
			c6.619,0,12.003,5.385,12.003,12.003V61.5C96.459,62.328,95.787,63,94.959,63z M29.542,60h63.917v-3.997
			c0-4.964-4.039-9.003-9.003-9.003h-45.91c-4.964,0-9.003,4.039-9.003,9.003V60z"/>
		<path class="st9" d="M22.666,140.158l-5.851,85.562c-0.51,7.46,5.4,13.78,12.87,13.78h63.63c7.47,0,13.38-6.32,12.87-13.78
			l-2.27-33.22l-7.93-116l-1.03-15h-66.91l-4.427,64.73L22.666,140.158z"/>
		<path class="st3" d="M93.315,241h-63.63c-4.035,0-7.773-1.623-10.526-4.571c-2.752-2.946-4.116-6.786-3.841-10.811l5.851-85.562
			c0.057-0.825,0.759-1.466,1.599-1.394c0.826,0.056,1.451,0.771,1.394,1.599l-5.851,85.562c-0.218,3.187,0.862,6.227,3.041,8.56
			c2.179,2.333,5.139,3.618,8.333,3.618h63.63c3.194,0,6.154-1.285,8.333-3.618c2.179-2.333,3.259-5.373,3.041-8.56L93.555,63
			H29.446l-4.331,63.333c-0.056,0.826-0.762,1.463-1.599,1.394c-0.826-0.056-1.451-0.771-1.394-1.599l4.427-64.73
			C26.602,60.61,27.256,60,28.045,60h66.91c0.789,0,1.442,0.61,1.497,1.397l11.23,164.22c0.275,4.025-1.089,7.865-3.841,10.811
			C101.088,239.377,97.35,241,93.315,241z"/>
		<path class="st4" d="M77.508,16.5H46.492c-4.414,0-7.992,3.578-7.992,7.992V45.5h47V24.492C85.5,20.078,81.922,16.5,77.508,16.5z"
			/>
		<path class="st3" d="M85.5,47h-47c-0.829,0-1.5-0.672-1.5-1.5V24.492C37,19.258,41.258,15,46.492,15h31.017
			C82.742,15,87,19.258,87,24.492V45.5C87,46.328,86.329,47,85.5,47z M40,44h44V24.492C84,20.912,81.088,18,77.508,18H46.492
			C42.912,18,40,20.912,40,24.492V44z"/>
		<path class="st4" d="M209.508,16.5h-31.016c-4.414,0-7.992,3.578-7.992,7.992V45.5h47V24.492
			C217.5,20.078,213.922,16.5,209.508,16.5z"/>
		<path class="st3" d="M217.5,47h-47c-0.829,0-1.5-0.672-1.5-1.5V24.492c0-5.234,4.258-9.492,9.492-9.492h31.017
			c5.234,0,9.492,4.258,9.492,9.492V45.5C219,46.328,218.329,47,217.5,47z M172,44h44V24.492c0-3.58-2.912-6.492-6.492-6.492
			h-31.017c-3.58,0-6.492,2.912-6.492,6.492V44z"/>
		<path class="st14" d="M227.958,61.5h-66.917v-5.497c0-5.801,4.702-10.503,10.503-10.503h45.91c5.801,0,10.503,4.702,10.503,10.503
			V61.5z"/>
		<path class="st3" d="M227.958,63h-66.917c-0.829,0-1.5-0.672-1.5-1.5v-5.497c0-6.618,5.385-12.003,12.003-12.003h45.91
			c6.619,0,12.003,5.385,12.003,12.003V61.5C229.458,62.328,228.787,63,227.958,63z M162.542,60h63.917v-3.997
			c0-4.964-4.039-9.003-9.003-9.003h-45.91c-4.964,0-9.003,4.039-9.003,9.003V60z"/>
		<path class="st9" d="M226.315,239.5h-63.63c-7.47,0-13.38-6.32-12.87-13.78l2.27-33.22l7.93-116l1.03-15h66.91l11.23,164.22
			C239.695,233.18,233.785,239.5,226.315,239.5z"/>
		<path class="st3" d="M226.315,241h-63.63c-4.035,0-7.773-1.623-10.526-4.571c-2.752-2.946-4.116-6.786-3.841-10.811l11.23-164.22
			c0.054-0.787,0.708-1.397,1.497-1.397h66.91c0.789,0,1.443,0.61,1.497,1.397l11.23,164.22c0.275,4.025-1.089,7.865-3.841,10.811
			C234.088,239.377,230.35,241,226.315,241z M162.445,63l-11.134,162.822c-0.218,3.187,0.862,6.227,3.041,8.56
			c2.179,2.333,5.139,3.618,8.333,3.618h63.63c3.194,0,6.154-1.285,8.333-3.618c2.179-2.333,3.259-5.373,3.041-8.56L226.554,63
			H162.445z"/>
		<path class="st28" d="M121.929,99.611H93.081c-15.923,0-28.831,12.908-28.831,28.831v27.193c0,5.94,4.815,10.755,10.755,10.755
			h106.24c5.94,0,10.755-4.815,10.755-10.755v-27.193c0-15.923-12.908-28.831-28.831-28.831h-28.431H121.929z"/>
		<path class="st3" d="M181.245,167.89H75.005c-6.757,0-12.255-5.497-12.255-12.255v-27.193c0-16.725,13.606-30.331,30.331-30.331
			h28.848c0.829,0,1.5,0.672,1.5,1.5c0,0.828-0.671,1.5-1.5,1.5H93.081c-15.07,0-27.331,12.261-27.331,27.331v27.193
			c0,5.104,4.152,9.255,9.255,9.255h106.24c5.103,0,9.255-4.151,9.255-9.255v-27.193c0-15.07-12.26-27.331-27.331-27.331h-28.431
			c-0.829,0-1.5-0.672-1.5-1.5c0-0.828,0.671-1.5,1.5-1.5h28.431c16.724,0,30.331,13.606,30.331,30.331v27.193
			C193.5,162.393,188.002,167.89,181.245,167.89z"/>
		<path class="st14" d="M136.845,26.334c0,0,3.408,12.659,13.222,13.246c0,0-13.1,4.525-13.321,14.202
			c0,0-2.579-13.572-12.925-14.059C123.82,39.723,135.871,37.898,136.845,26.334z"/>
		<path class="st3" d="M136.745,55.281c-0.713,0-1.335-0.506-1.472-1.217c-0.024-0.125-2.495-12.417-11.523-12.843
			c-0.77-0.036-1.387-0.65-1.427-1.421c-0.04-0.77,0.511-1.444,1.273-1.561c0.441-0.068,10.894-1.817,11.754-12.032
			c0.061-0.726,0.634-1.301,1.359-1.367c0.725-0.064,1.393,0.399,1.583,1.102c0.032,0.116,3.259,11.626,11.863,12.141
			c0.714,0.042,1.298,0.583,1.396,1.292c0.098,0.708-0.319,1.388-0.994,1.622c-0.121,0.042-12.118,4.31-12.312,12.819
			c-0.018,0.767-0.61,1.396-1.374,1.46C136.829,55.279,136.786,55.281,136.745,55.281z M129.003,39.553
			c3.878,1.969,6.23,5.745,7.587,8.876c2.026-4.021,5.941-6.787,8.949-8.427c-4.134-1.843-6.783-5.651-8.334-8.723
			C135.412,35.64,131.934,38.147,129.003,39.553z"/>
		<path class="st14" d="M115.146,43.314c0,0,2.411,8.954,9.352,9.369c0,0-9.266,3.201-9.422,10.046c0,0-1.824-9.6-9.142-9.944
			C105.934,52.785,114.457,51.494,115.146,43.314z"/>
		<path class="st3" d="M115.074,64.229c-0.713,0-1.337-0.508-1.472-1.22c-0.016-0.082-1.704-8.442-7.739-8.727
			c-0.77-0.036-1.387-0.65-1.427-1.421c-0.039-0.77,0.511-1.444,1.273-1.561c0.296-0.047,7.364-1.242,7.942-8.113
			c0.061-0.726,0.635-1.303,1.36-1.368c0.725-0.06,1.392,0.399,1.582,1.102l0,0c0.021,0.079,2.228,7.92,7.994,8.265
			c0.715,0.042,1.299,0.584,1.396,1.293c0.098,0.709-0.319,1.388-0.996,1.622c-0.081,0.028-8.282,2.953-8.413,8.662
			c-0.018,0.768-0.611,1.397-1.376,1.461C115.157,64.228,115.116,64.229,115.074,64.229z M110.556,52.702
			c2.107,1.332,3.523,3.394,4.447,5.279c1.376-2.232,3.515-3.872,5.365-4.973c-2.287-1.269-3.884-3.35-4.941-5.224
			C114.253,50.072,112.412,51.661,110.556,52.702z"/>
		<path class="st14" d="M115.146,16.657c0,0,2.411,8.954,9.352,9.369c0,0-9.266,3.201-9.422,10.045c0,0-1.824-9.6-9.142-9.944
			C105.934,26.128,114.457,24.836,115.146,16.657z"/>
		<path class="st3" d="M115.075,37.572c-0.714,0-1.337-0.508-1.473-1.22c-0.016-0.082-1.704-8.442-7.739-8.727
			c-0.771-0.036-1.388-0.65-1.428-1.421c-0.04-0.77,0.511-1.444,1.273-1.561c0.295-0.047,7.364-1.243,7.942-8.113
			c0.061-0.726,0.635-1.303,1.36-1.368c0.723-0.061,1.392,0.399,1.582,1.102l0,0c0.021,0.079,2.228,7.92,7.994,8.265
			c0.715,0.042,1.299,0.584,1.396,1.293c0.098,0.709-0.319,1.388-0.996,1.622c-0.081,0.028-8.282,2.953-8.413,8.662
			c-0.018,0.768-0.611,1.397-1.376,1.461C115.157,37.57,115.116,37.572,115.075,37.572z M110.556,26.044
			c2.107,1.333,3.523,3.395,4.447,5.28c1.376-2.232,3.515-3.872,5.365-4.973c-2.287-1.269-3.884-3.35-4.941-5.224
			C114.253,23.414,112.412,25.003,110.556,26.044z"/>
		<path class="st16" d="M234.645,234.38c-2.18,2.33-5.14,3.62-8.33,3.62h-15c3.19,0,6.15-1.29,8.33-3.62
			c2.18-2.33,3.26-5.37,3.04-8.56L211.555,63h15l11.13,162.82C237.905,229.01,236.825,232.05,234.645,234.38z"/>
		<path class="st6" d="M216,24.49V44h-15V24.49c0-3.58-2.91-6.49-6.49-6.49h15C213.09,18,216,20.91,216,24.49z"/>
		<path class="st17" d="M226.46,56v4h-15v-4c0-4.96-4.04-9-9-9h15C222.42,47,226.46,51.04,226.46,56z"/>
	</g>
</g>
</svg>
