<?xml version="1.0" encoding="utf-8"?>
<!-- Generator: Adobe Illustrator 19.2.1, SVG Export Plug-In . SVG Version: 6.00 Build 0)  -->
<svg version="1.1" id="Layer_2" xmlns="http://www.w3.org/2000/svg" xmlns:xlink="http://www.w3.org/1999/xlink" x="0px" y="0px"
	 viewBox="0 0 80.3 80.3" style="enable-background:new 0 0 80.3 80.3;" xml:space="preserve">
<style type="text/css">
	.st0{fill:#EB6A5C;}
	.st1{fill:#552F2F;}
	.st2{fill:#2384AB;}
	.st3{fill:#FFFFFF;}
	.st4{fill:#0C2C48;}
	.st5{fill:#F6A09C;}
	.st6{fill:#61C3AF;}
	.st7{fill:#2F4555;}
	.st8{fill:#55AB99;}
	.st9{fill:#ED6B5A;}
	.st10{fill:#2484AD;}
	.st11{fill:#FCA886;}
	.st12{fill:#F1CC4B;}
	.st13{fill:#6EB9E0;}
	.st14{fill:#50646F;}
	.st15{fill:#EDC84A;}
	.st16{fill:#E7543A;}
	.st17{fill:#F38D80;}
	.st18{fill:#F2F2F2;}
	.st19{fill:#81CAFF;}
	.st20{clip-path:url(#SVGID_4_);fill:#55AB99;}
	.st21{fill:#BABFC5;}
	.st22{fill:#BBC2C7;}
</style>
<g>
	<circle class="st8" cx="40.2" cy="40.2" r="40.2"/>
	<circle class="st12" cx="40.2" cy="39.8" r="34"/>
	<g>
		<g>
			<g>
				<path class="st4" d="M41.6,38.1c0,0.5-0.4,0.8-1,0.8l0,0c-0.6,0-1-0.4-1-0.8V28c0-0.5,0.4-0.8,1-0.8l0,0c0.6,0,1,0.4,1,0.8V38.1
					z"/>
				<g>
					<polygon class="st4" points="23.3,35.9 37.4,37.9 38.3,41.8 22.8,36.9 					"/>
					<polygon class="st4" points="57.9,35.9 43.7,37.9 42.9,41.8 58.3,36.9 					"/>
				</g>
				<path class="st4" d="M40.6,35.3c-4,0-7.3,3.3-7.3,7.3c0,4,3.3,9.7,7.3,9.7c4,0,7.3-5.7,7.3-9.7C47.8,38.6,44.6,35.3,40.6,35.3z"
					/>
				<polygon class="st3" points="35.3,42.6 36.8,39.8 44.4,39.8 45.9,42.6 				"/>
				<g>
					<polygon class="st4" points="9.6,39.3 34.8,42.6 36.4,49.3 8.8,41 					"/>
					<polygon class="st4" points="71.6,39.3 46.3,42.6 44.8,49.3 72.4,41 					"/>
				</g>
			</g>
			<g>
				<circle class="st4" cx="24.3" cy="46.4" r="2.8"/>
				<circle class="st4" cx="56" cy="46.4" r="2.8"/>
			</g>
		</g>
		<g>
			<rect x="30.2" y="52.4" class="st4" width="2.8" height="6.4"/>
			<rect x="48.1" y="52.4" class="st4" width="2.8" height="6.4"/>
		</g>
		<g>
			<g>
				<path class="st4" d="M31.8,53.4l-0.6-0.8c3-2.3,6.4-5,6.7-5.4l0.9,0.4C38.8,47.7,38.6,48.1,31.8,53.4z"/>
			</g>
			<g>
				<path class="st4" d="M49.3,53.4c-6.8-5.2-6.9-5.6-7-5.8l0.9-0.4l-0.5,0.2l0.4-0.3c0.3,0.4,3.7,3.1,6.7,5.4L49.3,53.4z"/>
			</g>
		</g>
	</g>
</g>
</svg>
