<?xml version="1.0" encoding="utf-8"?>
<!-- Generator: Adobe Illustrator 19.2.1, SVG Export Plug-In . SVG Version: 6.00 Build 0)  -->
<svg version="1.1" id="Layer_2" xmlns="http://www.w3.org/2000/svg" xmlns:xlink="http://www.w3.org/1999/xlink" x="0px" y="0px"
	 viewBox="0 0 80.3 80.3" style="enable-background:new 0 0 80.3 80.3;" xml:space="preserve">
<style type="text/css">
	.st0{fill:#EB6A5C;}
	.st1{fill:#552F2F;}
	.st2{fill:#2384AB;}
	.st3{fill:#FFFFFF;}
	.st4{fill:#0C2C48;}
	.st5{fill:#F6A09C;}
	.st6{fill:#61C3AF;}
	.st7{fill:#2F4555;}
	.st8{fill:#55AB99;}
	.st9{fill:#ED6B5A;}
	.st10{fill:#2484AD;}
	.st11{fill:#FCA886;}
	.st12{fill:#F1CC4B;}
	.st13{fill:#6EB9E0;}
	.st14{fill:#50646F;}
	.st15{fill:#EDC84A;}
	.st16{fill:#E7543A;}
	.st17{fill:#F38D80;}
	.st18{fill:#F2F2F2;}
	.st19{fill:#81CAFF;}
	.st20{clip-path:url(#SVGID_4_);fill:#55AB99;}
	.st21{fill:#BABFC5;}
	.st22{fill:#BBC2C7;}
</style>
<g>
	<circle class="st4" cx="40.2" cy="40.2" r="40.2"/>
	<g>
		<circle class="st19" cx="40.4" cy="39.4" r="26"/>
		<g>
			<defs>
				<circle id="SVGID_3_" cx="40.4" cy="39.4" r="26"/>
			</defs>
			<clipPath id="SVGID_2_">
				<use xlink:href="#SVGID_3_"  style="overflow:visible;"/>
			</clipPath>
			<polygon style="clip-path:url(#SVGID_2_);fill:#55AB99;" points="30.2,36 38.8,38 44.3,44.4 38.2,48.6 33.9,53.7 33.3,61.4 
				28.4,52.7 25.9,43.1 			"/>
			<polygon style="clip-path:url(#SVGID_2_);fill:#55AB99;" points="29.8,38 28.7,33.2 32,32.9 32.3,29.7 36.7,27.2 41,23.3 
				39.9,20.3 36.9,20 36.7,18 27.2,7 20.6,10.4 16.2,23.4 			"/>
			<polygon style="clip-path:url(#SVGID_2_);fill:#55AB99;" points="34,19.6 35.6,22.3 37.8,22.5 41.2,17 38.1,16.8 			"/>
			<polygon style="clip-path:url(#SVGID_2_);fill:#55AB99;" points="54,34.2 51.5,36.5 46.3,33.1 46.7,30.2 48.8,28.7 53.2,28.4 
				51.5,24.4 48.8,22.2 52.8,13.7 71,24.5 69.7,52.7 51.2,69.7 49.2,43.2 51.9,39.2 55.3,36.4 60.9,34.2 60,31.5 			"/>
			<polygon style="clip-path:url(#SVGID_2_);fill:#55AB99;" points="45.5,29.3 40.6,32.5 40.3,29 44,22.6 46.4,21.7 			"/>
		</g>
	</g>
	<g>
		<path class="st3" d="M65.1,27.7L32.7,19c-2-0.5-5.5,0.5-6.1,2.7c-0.5,2.1,2.2,4.6,4.2,5.1l32.8,6.9L65.1,27.7z"/>
		<g>
			<g>
				<path class="st3" d="M42.8,27.8c0.2,1,4.9,19.3,4.9,19.3l6.2,2.1l-1-19.2L42.8,27.8z"/>
			</g>
			<g>
				<path class="st3" d="M44.1,22.5c0.6-0.8,13.1-15,13.1-15l6.5,1L54,25.2L44.1,22.5z"/>
			</g>
		</g>
		<path class="st3" d="M71.1,31.1c0.3,0.1,0.5,0.4,0.4,0.7l0,0c-0.1,0.3-0.4,0.5-0.7,0.5L61,30c-0.3-0.1-0.5-0.4-0.4-0.7l0,0
			c0.1-0.3,0.4-0.5,0.7-0.5L71.1,31.1z"/>
		<g>
			<path class="st3" d="M60.2,29.5c0.3,0.3,5.6,7.6,5.6,7.6l4.8,1.3l-2.7-7.2L60.2,29.5z"/>
			<path class="st3" d="M60.8,29c0.4-0.1,8.5-4.2,8.5-4.2l4.9,1L68.5,31L60.8,29z"/>
		</g>
	</g>
</g>
</svg>
