<svg xmlns="http://www.w3.org/2000/svg" viewBox="0 0 512 512"><title>Search_For_Flight</title><g id="Search_For_Flight" data-name="Search For Flight"><g id="Search_For_Flight-2" data-name="Search For Flight"><path d="M422.7194,355.8678l-63.1351-63.1313A149.29,149.29,0,0,0,374.6161,227.39c0-82.4761-67.1013-149.5718-149.5813-149.5718C142.5577,77.818,75.463,144.9165,75.463,227.39c0,82.48,67.0985,149.5785,149.5718,149.5785a148.5709,148.5709,0,0,0,71.0714-17.9617l61.732,61.7386a45.8766,45.8766,0,1,0,64.8812-64.8774Zm-14.1085,50.7728a25.9351,25.9351,0,0,1-36.6681,0l-72.8669-72.8774A129.6207,129.6207,0,1,1,334.86,296.2278l73.7513,73.7447A25.9292,25.9292,0,0,1,408.6109,406.6406Z"/><path d="M296.8843,199.9823h-.0228L266.2876,201,226.913,127.979,201.9,127.9723a13.7843,13.7843,0,0,0-13.7161,13.7588v1.4165l17.27,59.5612-27.7732.2394-14.1151-21.35-17.22.0038a12.8342,12.8342,0,0,0-12.825,12.8174v67.0852a12.83,12.83,0,0,0,12.8183,12.8146l17.2368.01,14.36-21.7825,27.6574.1928-17.4126,60.0362v1.42a13.7653,13.7653,0,0,0,13.7484,13.7522H226.913l39.6444-73.5158,30.6366,1.0137c15.86,0,28.7612-12.4422,28.7612-27.7372a27.0383,27.0383,0,0,0-8.625-19.8A29.3236,29.3236,0,0,0,296.8843,199.9823Zm.6384,35.5138-42.66-1.4164L215,307.9945h-4.6617l21.7588-75.0216-64.8574-.4522-13.7722,20.8877V202.496l13.5461,20.4887,64.9239-.5586-21.603-74.5038h4.6617l39.6007,73.4293,42.6037-1.426c4.8545,0,8.8046,3.4875,8.8046,7.7768C306.0052,231.9954,302.0551,235.49,297.5227,235.4961Z"/></g></g></svg>