<svg xmlns="http://www.w3.org/2000/svg" viewBox="0 0 64 64"><defs><style>.cls-1{fill:#a2d0ff;}.cls-2{fill:#d1e7ff;}.cls-3{fill:#8bc4ff;}.cls-4{fill:#e8f3ff;}.cls-5{fill:#2e58ff;}</style></defs><title>Pilot</title><g id="Pilot"><path class="cls-1" d="M37,45l16.17,5.15A10,10,0,0,1,60,58l1,6H3l1-6a10,10,0,0,1,6.84-7.88L27,45Z"/><rect class="cls-2" x="26" y="36" width="12" height="17"/><path class="cls-2" d="M43,14V28a11,11,0,0,1-22,0V14Z"/><polygon class="cls-3" points="32 53 24 59 20.34 47.12 26.19 45.26 32 53"/><polygon class="cls-3" points="32 53 40 59 43.66 47.12 37.81 45.26 32 53"/><path class="cls-4" d="M37.6,57.2C35.68,63,36,61.33,36,64H28c0-2.52.32-1-1.6-6.8L32,53Z"/><path class="cls-1" d="M24,21H46V16A10,10,0,0,0,36,6c-12.95,0-10.86.57-20-4V13A8,8,0,0,0,24,21Z"/><path class="cls-1" d="M18,31h3V21H18a5,5,0,0,0,0,10Z"/><path class="cls-1" d="M43,31h3a5,5,0,0,0,0-10H43Z"/><path class="cls-5" d="M63,61.61l-.84-4.22A12,12,0,0,0,54,48.31L40,43.85V38.24A13,13,0,0,0,44,33h2a7,7,0,0,0,2-13.71V16A12,12,0,0,0,36,4c-11.58,0-10.63.48-17.36-2.91C17.11.32,16.14-.44,15,.3A2,2,0,0,0,14,2V13a10,10,0,0,0,2.19,6.24A7,7,0,0,0,18,33h2a13,13,0,0,0,4,5.24v5.61L10,48.31a12,12,0,0,0-8.13,9.08L1,61.61A2,2,0,1,0,5,62.39L5.64,59c1.19.89,2,1.62,3.48,1.62s2-.55,5.91-2.89A2,2,0,0,0,13,54.29l-3.85,2.3-2-1.49c2.07-2.81,3.64-2.84,11.88-5.46l3.07,10A2,2,0,0,0,24,61a2.18,2.18,0,0,0,1.38-.53l.72,2.16a2,2,0,0,0,3.8-1.26l-1.15-3.43L32,55.5l3.25,2.44L34.1,61.37a2,2,0,0,0,3.8,1.26l.72-2.16a2,2,0,0,0,3.29-.88l3.07-10c8,2.55,9.79,2.63,11.88,5.46l-2,1.49L51,54.29A2,2,0,0,0,49,57.71L52.82,60a4,4,0,0,0,4.46-.23L58.36,59,59,62.39A2,2,0,0,0,63,61.61ZM49,26a3,3,0,0,1-3,3H45V23h1A3,3,0,0,1,49,26ZM18,5.24C24.36,8.42,24.43,8,36,8a8,8,0,0,1,8,8v3H24a6,6,0,0,1-5-2.69C17.67,14.33,18,13.15,18,5.24ZM19,29H18a3,3,0,0,1,0-6h1Zm4-1V23c.8.07-.62.05,18,.05,0,5.23,0,5.3-.06,6H35a2,2,0,0,0,0,4h4.48C34.47,40.51,23,36.7,23,28ZM36,40.36v4c-2.52,3.35-1.6,2.12-4,5.33-2.4-3.21-1.48-2-4-5.33v-4A12.87,12.87,0,0,0,36,40.36ZM25.2,55.6c-.18.13.13.94-2.37-7.17l2.61-.83c3,4.06,2.25,3,3.76,5Zm13.73.09c-.77-.53-4-3-4.13-3.09,1.54-2.05.69-.93,3.76-5l2.61.83C39,55.44,39.41,54.12,38.93,55.69Z"/></g></svg>