<svg xmlns="http://www.w3.org/2000/svg" viewBox="0 0 64 64"><defs><style>.cls-1{fill:#d1e7ff;}.cls-2{fill:#2e58ff;}</style></defs><title>Direction Board</title><g id="Direction_Board" data-name="Direction Board"><rect class="cls-1" x="2" y="6" width="60" height="24" rx="2"/><polyline class="cls-1" points="46 14 54 14 54 22"/><line class="cls-1" x1="54" y1="14" x2="46" y2="22"/><rect class="cls-1" x="2" y="6" width="60" height="24" rx="2"/><polyline class="cls-1" points="46 14 54 14 54 22"/><line class="cls-1" x1="54" y1="14" x2="46" y2="22"/><rect class="cls-1" x="2" y="38" width="60" height="24" rx="2" transform="translate(64 100) rotate(-180)"/><polyline class="cls-1" points="18 46 10 46 10 54"/><line class="cls-1" x1="10" y1="46" x2="18" y2="54"/><line class="cls-1" x1="54" y1="46" x2="26" y2="46"/><line class="cls-1" x1="54" y1="54" x2="31" y2="54"/><path class="cls-2" d="M60,32a4,4,0,0,0,4-4V8a4,4,0,0,0-4-4H54V2a2,2,0,0,0-4,0V4H14V2a2,2,0,0,0-4,0V4H4A4,4,0,0,0,0,8V28a4,4,0,0,0,4,4h6v4H4a4,4,0,0,0-4,4V60a4,4,0,0,0,4,4H60a4,4,0,0,0,4-4V40a4,4,0,0,0-4-4H54V32ZM4,8H60V28H4ZM60,60H4V40H60ZM50,36H14V32H50Z"/><path class="cls-2" d="M44.59,23.41a2,2,0,0,0,2.82,0L52,18.83V22a2,2,0,0,0,4,0c0-8.75,0-8.11,0-8.39a2,2,0,0,0-1.4-1.52C54.12,12,55,12,46,12a2,2,0,0,0,0,4h3.17l-4.58,4.59A2,2,0,0,0,44.59,23.41Z"/><path class="cls-2" d="M10,16H38a2,2,0,0,0,0-4H10a2,2,0,0,0,0,4Z"/><path class="cls-2" d="M35,22a2,2,0,0,0-2-2H10a2,2,0,0,0,0,4H33A2,2,0,0,0,35,22Z"/><path class="cls-2" d="M20,46a2,2,0,0,0-2-2H10a2,2,0,0,0-1.85,1.24c-.21.51-.15.2-.15,8.76a2,2,0,0,0,4,0V50.83l4.59,4.58a2,2,0,1,0,2.82-2.82L14.83,48H18A2,2,0,0,0,20,46Z"/><path class="cls-2" d="M24,46a2,2,0,0,0,2,2H54a2,2,0,0,0,0-4H26A2,2,0,0,0,24,46Z"/><path class="cls-2" d="M54,52H31a2,2,0,0,0,0,4H54a2,2,0,0,0,0-4Z"/></g></svg>